<svg xmlns="http://www.w3.org/2000/svg" width="364.9639791485939" height="261.35625" viewBox="0 0 350 250.6403171989649" class="css-1j8o68f"><defs id="SvgjsDefs1414"></defs><g id="SvgjsG1415" featurekey="ECw45b-0" transform="matrix(2.1724678812146436,0,0,2.1724678812146436,56.798888068776954,-0.8635731789454404)" fill="#a6acec"><path xmlns="http://www.w3.org/2000/svg" d="M82.977,87.703c-0.376-0.302-0.766-0.392-1.258-0.505c-0.364-0.084-0.817-0.188-1.412-0.418  c-1.643-0.631-2.938-0.407-3.739-0.107c-1.001,0.375-2.414,0.813-3.104,0.813c-0.396,0-1.273-0.144-2.047-0.271  c-0.845-0.139-1.572-0.258-1.971-0.258c-0.638,0-0.638,0-1.297-0.658c-0.783-0.781-2.41-2.407-3.652-3.545  c-0.656-0.603-1.087-1.181-1.503-1.738c-0.37-0.496-0.72-0.965-1.2-1.426c-0.395-0.379-0.896-0.78-1.415-1.151  c-0.044-0.381-0.161-1.223-0.472-2.715c-0.157-0.758-0.291-1.287-0.401-1.727c-0.195-0.772-0.313-1.24-0.367-2.216  c-0.083-1.562,0.308-3.38,0.622-4.839c0.177-0.825,0.252-1.834,0.324-2.811c0.07-0.947,0.143-1.926,0.307-2.688  c0.18-0.828,0.5-1.833,0.811-2.804c0.27-0.847,0.549-1.721,0.731-2.471c0.178-0.729,0.195-1.284,0.211-1.773  c0.02-0.601,0.033-1.034,0.339-1.595c0.653-1.198,1.694-2.739,2.592-3.835c1.005-1.228,2.814-4.225,3.457-5.724  c0.634-1.482,1.911-5.303,2.347-6.827c0.197-0.688,0.326-1.264,0.439-1.769c0.131-0.583,0.234-1.044,0.394-1.471  c0.102-0.271,0.204-0.443,0.292-0.593c0.192-0.328,0.374-0.637,0.374-1.38c0-1.189-2.225-4.78-2.541-5.176  c-0.406-0.508-3.771-6.665-4.105-7.764c-0.371-1.221-0.814-2.007-1.82-3.237c-0.296-0.362-0.653-0.828-1.041-1.332  c-0.878-1.14-1.871-2.432-2.692-3.252c-1.138-1.137-4.385-4.905-4.417-4.943c-0.102-0.117-0.255-0.184-0.404-0.173  c-0.153,0.008-0.296,0.086-0.384,0.213c-0.038,0.053-0.907,1.329-0.031,2.956c0.401,0.746,0.918,1.572,1.316,2.187  c-0.2,0.03-0.394,0.103-0.553,0.242c-0.204,0.179-0.416,0.524-0.267,1.151c0.205,0.858,0.871,1.43,1.575,2.035  c0.517,0.444,1.05,0.902,1.437,1.503c0.653,1.016,1.153,1.176,1.692,1.271c0.212,0.037,0.339,0.06,0.519,0.213  c0.581,0.498,1.513,2.734,1.957,4.402c0.445,1.671,2.124,6.461,2.551,7.653c0.104,0.291,0.203,0.554,0.296,0.798  c0.373,0.981,0.598,1.572,0.522,2.482c-0.057,0.673-0.535,1.484-1.044,2.343c-0.331,0.561-0.674,1.14-0.928,1.732  c-0.261,0.609-0.517,1.426-0.764,2.216c-0.268,0.854-0.671,2.143-0.886,2.349c-0.518,0.414-2.768,2.339-3.849,3.42  c-0.454,0.455-0.805,0.974-1.086,1.39c-0.1,0.148-0.221,0.327-0.324,0.465c-0.084-0.592,0.033-1.914,0.114-2.839  c0.041-0.463,0.082-0.932,0.112-1.379c0.024-0.373,0.054-0.727,0.082-1.073c0.125-1.513,0.243-2.942-0.087-5.065  c-0.385-2.474-0.923-4.063-1.858-5.485c-0.875-1.33-1.985-1.81-3.392-2.417l-0.216-0.093c-1.447-0.626-2.539-0.724-3.77-0.335  c-1.129,0.357-1.937,0.974-2.98,2.279c-1.068,1.337-1.847,2.699-2.176,5c-0.169,1.188-0.279,2.52-0.375,3.695  c-0.086,1.049-0.161,1.954-0.257,2.532c-0.137,0.822-0.25,2.137-0.314,3c-1.004-0.684-2.459-1.762-2.895-2.447  c-0.721-1.133-1.772-3.235-2.498-4.997c-0.335-0.814-0.745-1.529-1.107-2.161c-0.39-0.68-0.759-1.323-0.759-1.667  c0-0.491,0.45-1.99,0.779-3.085c0.19-0.634,0.368-1.229,0.475-1.657c0.309-1.234,1.159-4.843,1.484-6.361  c0.259-1.206,0.982-2.837,1.371-3.714l0.186-0.423c0.149-0.349,0.208-0.37,0.67-0.537c0.183-0.066,0.398-0.145,0.66-0.261  c1.11-0.494,2.642-1.79,2.572-3.127c-0.022-0.419,0.139-0.572,0.431-0.85c0.211-0.201,0.474-0.45,0.637-0.83  c0.188-0.439,0.213-0.796,0.233-1.082c0.018-0.26,0.031-0.448,0.153-0.679C44.902,9.313,45.52,7.984,45.52,7.2  c0-0.115,0.005-0.237,0.011-0.362c0.024-0.567,0.053-1.21-0.358-1.589c-0.149-0.138-0.417-0.292-0.85-0.237  c-0.808,0.101-1.534,1.145-2.237,2.153c-0.263,0.379-0.512,0.736-0.721,0.975c-0.379,0.433-0.613,0.903-0.861,1.4  c-0.276,0.554-0.589,1.182-1.176,1.887c-1.105,1.329-3.601,3.517-3.626,3.539c-0.055,0.048-0.098,0.107-0.128,0.173  c-0.153,0.344-0.251,0.707-0.366,1.128c-0.229,0.843-0.513,1.893-1.411,3.481c-1.1,1.948-2.126,4.544-2.876,6.44  c-0.199,0.503-0.378,0.957-0.534,1.335c-0.276,0.669-0.626,1.258-0.965,1.828c-0.565,0.949-1.052,1.768-0.974,2.638  c0.063,0.695,0.364,1.256,0.683,1.851c0.275,0.513,0.56,1.043,0.701,1.698c0.304,1.42,1.895,7.006,2.692,8.486  c0.287,0.532,0.868,1.407,1.541,2.42c1.064,1.602,2.389,3.595,2.767,4.602c0.139,0.371,0.327,0.834,0.537,1.351  c0.739,1.819,1.751,4.311,1.844,5.801c0.098,1.569,0.653,3.987,1.1,5.93c0.135,0.587,0.257,1.117,0.347,1.545l0.193,0.884  c0.353,1.596,0.792,3.579,0.707,5.119c-0.108,1.931-0.233,3.429-0.878,5.138c-0.283,0.752-0.625,1.441-0.954,2.11  c-0.452,0.913-0.878,1.775-1.114,2.7c-0.403,1.579-0.877,3.517,0.177,5.33c-1.199-0.145-2.765-0.162-3.988,0.43  c-0.987,0.48-1.568,0.274-2.533-0.064c-0.328-0.115-0.68-0.238-1.079-0.345c-0.42-0.111-0.707-0.224-0.926-0.31  c-0.779-0.303-1.081-0.305-2.035,0.389c-0.529,0.384-0.833,0.529-1.077,0.645c-0.284,0.134-0.528,0.25-0.818,0.611  c-0.608,0.76-0.621,1.857-0.034,2.798c0.553,0.885,1.433,0.849,2.362,0.816c0.276-0.011,0.577-0.024,0.903-0.013  c1.199,0.035,2.73,0.308,4.353,0.596l0.545,0.097c0.541,0.096,1.149,0.182,1.769,0.27c1.425,0.202,2.898,0.41,3.73,0.758  c1.021,0.425,3.257,0.697,5.417,0.961c0.66,0.081,1.294,0.158,1.85,0.235C48.153,94.956,49.054,95,49.955,95  c0.982,0,1.965-0.053,2.976-0.107c0.398-0.021,0.801-0.043,1.205-0.062c2.267-0.103,4.091-0.688,5.58-1.789  c1.288-0.954,1.51-2.348,1.725-3.961c0.225,0.109,0.438,0.229,0.681,0.324c1.203,0.47,2.152,0.771,2.917,1.013  c0.859,0.273,1.48,0.47,1.761,0.704c0.124,0.103,0.229,0.221,0.336,0.34c0.461,0.512,1.036,1.149,2.734,1.149  c2.044,0,3.407-0.122,4.863-0.434c1.465-0.314,3.209-0.518,4.448-0.518c1.468,0,2.984,0,3.558-0.716  C83.221,90.34,83.839,88.394,82.977,87.703z M58.261,46.441c0.271-0.401,0.577-0.856,0.965-1.243  c1.056-1.057,3.259-2.941,3.766-3.348c0.418-0.334,0.719-1.246,1.215-2.83c0.24-0.766,0.488-1.559,0.729-2.122  c0.229-0.532,0.555-1.083,0.869-1.617c0.568-0.96,1.104-1.867,1.179-2.769c0.095-1.136-0.189-1.884-0.583-2.92  c-0.091-0.238-0.188-0.494-0.29-0.779c-0.422-1.183-2.089-5.937-2.525-7.574c-0.334-1.25-1.327-4.094-2.273-4.904  c-0.388-0.332-0.739-0.394-0.996-0.438c-0.321-0.057-0.554-0.097-1.022-0.827c-0.467-0.724-1.084-1.254-1.628-1.721  c-0.603-0.518-1.123-0.965-1.253-1.508c-0.022-0.094-0.024-0.15-0.032-0.168c0.129-0.032,0.468,0.02,0.729,0.118  c0.206,0.076,0.437,0.012,0.57-0.16c0.134-0.173,0.143-0.412,0.019-0.592c-0.012-0.017-1.157-1.686-1.876-3.021  c-0.255-0.472-0.294-0.893-0.258-1.219c0.993,1.144,3.024,3.467,3.906,4.348c0.774,0.775,1.747,2.04,2.605,3.155  c0.396,0.513,0.76,0.986,1.062,1.354c0.922,1.128,1.305,1.805,1.636,2.896c0.37,1.215,3.79,7.482,4.282,8.098  c0.453,0.566,2.322,3.804,2.322,4.551c0,0.471-0.079,0.606-0.236,0.874c-0.104,0.179-0.235,0.402-0.365,0.748  c-0.186,0.492-0.301,1.007-0.435,1.604c-0.109,0.489-0.234,1.046-0.425,1.713c-0.429,1.5-1.684,5.256-2.306,6.708  c-0.603,1.409-2.366,4.331-3.311,5.485c-0.932,1.139-2.015,2.743-2.696,3.989c-0.419,0.771-0.439,1.388-0.46,2.042  c-0.016,0.463-0.03,0.94-0.184,1.569c-0.161,0.665-0.399,1.422-0.654,2.218c-0.596-0.627-1.732-1.911-2.437-3.272  c-0.984-1.902-1.825-3.902-1.945-5.065c-0.079-0.764-0.165-1.793-0.215-2.415c0.26,0.082,0.502,0.116,0.702,0.116  c0.143,0,0.259-0.015,0.355-0.031c0.134,0.047,0.259,0.053,0.35,0.041C57.571,47.462,57.86,47.034,58.261,46.441z M55.031,49.708  c-0.072,0.952,0.312,1.95-0.395,2.794c-0.706,0.846-1.679,1.963-4.484,1.857c-2.807-0.105-4.922-1.692-5.345-2.644  c-0.423-0.951-0.172-1.98,0.047-2.911c0.138-0.586,0.199-1.149,0.226-1.539c0.837-0.208,1.407-0.815,1.723-1.854  c0.195-0.641,0.295-1.178,0.349-1.57c0.286,0.219,0.595,0.403,0.926,0.521c0.612,0.216,1.423,0.351,2.117,0.351  c0.719,0,1.302-0.133,1.73-0.396c0.367-0.225,0.738-0.464,1.096-0.75c-0.037,0.698-0.048,1.578,0.095,2.054  c0.184,0.615,0.521,0.726,0.852,0.786c0.176,0.032,0.376,0.069,0.725,0.39c0.096,0.088,0.19,0.147,0.285,0.216  C55.023,47.844,55.077,49.1,55.031,49.708z M46.294,41.309c-0.515-0.858-0.561-1.823-0.644-3.575l-0.025-0.528  c-0.101-2.017,0.159-3.057,1.113-4.451c0.679-0.992,1.202-1.279,2.332-1.279c0.146,0,0.301,0.005,0.496,0.017  c0.834,0,2.678,0.221,3.051,0.903c0.648,1.188,1.131,2.889,1.357,4.789c0.256,2.151,0.246,2.943-0.309,4.053  c-0.562,1.124-1.392,1.695-2.263,2.229c-0.262,0.16-0.69,0.248-1.208,0.248c-0.704,0-1.382-0.151-1.784-0.293  C47.726,43.178,46.954,42.409,46.294,41.309z M38.296,52.021c-0.207-0.508-0.391-0.961-0.527-1.325  c-0.418-1.115-1.721-3.076-2.87-4.806c-0.632-0.951-1.229-1.849-1.494-2.341c-0.694-1.289-2.273-6.724-2.595-8.222  c-0.17-0.794-0.503-1.414-0.796-1.961c-0.281-0.524-0.524-0.977-0.569-1.469c-0.05-0.546,0.362-1.236,0.837-2.036  c0.34-0.572,0.727-1.221,1.031-1.958c0.157-0.382,0.338-0.841,0.539-1.349c0.739-1.868,1.75-4.427,2.817-6.315  c0.959-1.698,1.275-2.862,1.505-3.712c0.095-0.351,0.172-0.636,0.273-0.887c0.464-0.409,2.601-2.314,3.65-3.575  c0.661-0.795,1.002-1.478,1.302-2.081c0.228-0.457,0.424-0.852,0.718-1.188c0.245-0.28,0.509-0.66,0.789-1.061  c0.41-0.59,1.175-1.687,1.58-1.761c0.075,0.109,0.055,0.57,0.044,0.818c-0.006,0.14-0.012,0.277-0.012,0.406  c0,0.432-0.39,1.437-1.019,2.62c-0.222,0.419-0.246,0.77-0.267,1.079c-0.018,0.253-0.033,0.473-0.154,0.756  c-0.082,0.191-0.232,0.334-0.406,0.5c-0.333,0.315-0.788,0.748-0.742,1.626c0.037,0.706-1.034,1.741-1.979,2.161  c-0.235,0.105-0.43,0.175-0.595,0.234c-0.519,0.188-0.928,0.336-1.249,1.083l-0.181,0.413c-0.432,0.973-1.154,2.603-1.434,3.909  c-0.324,1.51-1.169,5.101-1.477,6.329c-0.104,0.417-0.278,0.996-0.463,1.613c-0.48,1.602-0.821,2.781-0.821,3.373  c0,0.61,0.394,1.296,0.892,2.165c0.346,0.604,0.74,1.29,1.05,2.044c0.757,1.839,1.817,3.958,2.579,5.154  c0.727,1.142,3.232,2.787,3.816,3.161c0.339,0.533,1.247,1.803,2.189,1.913c-0.276,1.023-0.983,3.497-1.828,5.336  c-0.966,2.105-2.042,3.428-2.494,3.934C39.553,55.121,38.852,53.39,38.296,52.021z M41.436,64.549  c1.345-0.156,5.173-0.565,8.435-0.565c3.318,0,7.71,0.568,9.163,0.77c-0.058,0.712-0.129,1.408-0.252,1.979  c-0.326,1.519-0.731,3.406-0.641,5.103c0.058,1.073,0.191,1.605,0.395,2.408c0.107,0.424,0.235,0.935,0.388,1.66l-2.444,0.34  c-0.364-0.254-0.738-0.568-1.067-0.953c-0.197-0.231-0.34-0.46-0.477-0.682c-0.393-0.634-0.799-1.29-2.215-1.29  c-1.609,0-2.961,0.206-4.726,1.229c-0.898,0.521-1.635,1.072-2.364,1.649l-3.748,0.128c0.45-1.512,0.584-2.943,0.676-4.595  c0.094-1.676-0.362-3.734-0.728-5.39l-0.191-0.875C41.583,65.199,41.512,64.883,41.436,64.549z M60.471,88.79  c-0.209,1.575-0.359,2.714-1.352,3.447c-1.322,0.979-2.968,1.502-5.028,1.596c-0.407,0.018-0.812,0.04-1.214,0.062  c-1.891,0.102-3.675,0.198-5.509-0.058c-0.561-0.078-1.201-0.156-1.866-0.237c-1.997-0.244-4.259-0.521-5.154-0.894  c-0.95-0.395-2.488-0.612-3.975-0.823c-0.608-0.086-1.205-0.17-1.735-0.264l-0.543-0.097c-1.659-0.295-3.226-0.574-4.499-0.611  c-0.35-0.011-0.673,0.002-0.97,0.013c-0.927,0.039-1.25,0.016-1.477-0.346c-0.436-0.699-0.303-1.307-0.034-1.644  c0.145-0.181,0.226-0.22,0.465-0.333c0.267-0.126,0.633-0.299,1.236-0.738c0.617-0.448,0.617-0.449,1.083-0.266  c0.245,0.096,0.564,0.22,1.032,0.345c0.372,0.099,0.7,0.214,1.006,0.321c0.999,0.35,1.942,0.68,3.3,0.021  c1.899-0.922,5.058-0.029,5.089-0.021c0.002,0.001,0.005,0,0.008,0.001c1.382,0.437,3.114-0.063,3.812-0.266  c0.417-0.122,0.899-0.235,1.406-0.354c1.087-0.256,2.319-0.546,3.278-1.005c0.701-0.337,1.249-0.864,1.733-1.329  c0.527-0.508,0.984-0.948,1.434-0.948c1.111,0,2.76,0.093,4.23,0.892c0.554,0.3,1.126,0.804,1.788,1.388  c0.728,0.641,1.535,1.328,2.484,1.923L60.471,88.79z M81.956,90.318c-0.271,0.342-1.899,0.342-2.782,0.342  c-1.297,0-3.123,0.212-4.65,0.539c-1.383,0.297-2.687,0.412-4.654,0.412c-1.253,0-1.595-0.379-1.99-0.818  c-0.141-0.155-0.279-0.306-0.439-0.441c-0.432-0.358-1.095-0.568-2.1-0.887c-0.75-0.237-1.683-0.533-2.854-0.991  c-1.576-0.615-2.762-1.661-3.809-2.582c-0.679-0.598-1.319-1.161-1.972-1.517c-1.864-1.012-4.005-1.012-4.708-1.012  c-0.853,0-1.501,0.624-2.127,1.227c-0.451,0.435-0.916,0.882-1.472,1.148c-0.861,0.413-2.037,0.689-3.075,0.933  c-0.524,0.123-1.024,0.24-1.458,0.366c-2.109,0.617-3.469,0.52-4.043-0.291c-1.092-1.539-0.64-3.312-0.241-4.873  c0.005-0.02,0.01-0.039,0.015-0.059c0.169,0.038,0.353-0.009,0.48-0.146c0.672-0.717,1.607-1.35,2.597-2.02  c0.512-0.346,1.041-0.704,1.566-1.095c0.53-0.394,1.007-0.774,1.47-1.145c0.888-0.711,1.728-1.383,2.786-1.997  c1.57-0.912,2.781-1.095,4.224-1.095c0.859,0,1.007,0.239,1.365,0.816c0.149,0.241,0.318,0.516,0.566,0.807  c1.049,1.229,2.439,1.84,2.987,2.045c0.443,0.167,1.211,0.611,1.964,1.133c0.011,0.008,0.021,0.016,0.033,0.023  c0.542,0.377,1.073,0.793,1.465,1.169c0.421,0.404,0.746,0.841,1.092,1.303c0.423,0.568,0.903,1.212,1.629,1.877  c1.226,1.123,2.843,2.739,3.685,3.58c0.823,0.822,1.048,0.888,1.94,0.888c0.317,0,1.075,0.124,1.809,0.244  c0.891,0.146,1.731,0.284,2.209,0.284c1.035,0,2.905-0.672,3.455-0.878c0.638-0.24,1.679-0.415,3.028,0.105  c0.66,0.254,1.151,0.367,1.547,0.459c0.444,0.103,0.667,0.158,0.854,0.308C82.53,88.683,82.314,89.87,81.956,90.318z M54.429,92.341  c-0.089,0.172-0.264,0.271-0.444,0.271c-0.078,0-0.156-0.018-0.229-0.056c-0.051-0.026-1.254-0.654-2.144-1.782  c-0.969-1.229-0.532-3.276-0.514-3.363c0.06-0.27,0.326-0.438,0.596-0.381c0.27,0.06,0.44,0.325,0.382,0.596  c-0.101,0.463-0.238,1.819,0.321,2.528c0.757,0.96,1.807,1.508,1.817,1.514C54.459,91.794,54.556,92.096,54.429,92.341z   M54.452,77.36l-0.05,0.134c-0.359,0.96-0.445,1.188-1.272,1.334c-0.176,0.032-0.41,0.073-0.738,0.164  c-0.045,0.012-0.089,0.018-0.133,0.018c-0.22,0-0.421-0.146-0.481-0.368c-0.074-0.267,0.082-0.542,0.349-0.615  c0.368-0.101,0.633-0.148,0.829-0.183c0.104-0.019,0.224-0.04,0.256-0.055c0.027-0.042,0.138-0.335,0.255-0.646l0.051-0.135  c0.097-0.259,0.388-0.393,0.644-0.292C54.419,76.813,54.55,77.102,54.452,77.36z"></path></g><g id="SvgjsG1416" featurekey="6sJQsk-0" transform="matrix(1.6807852008012043,0,0,1.6807852008012043,-0.30254104761831485,217.02460997709744)" fill="#a56cc1"><path d="M13.3 5.34 l-5.5 8.26 l0 6.4 l-2.14 0 l0 -6.4 l-5.48 -8.26 l2.44 0 l4.14 6.06 l4.1 -6.06 l2.44 0 z M29.112000000000002 20 l-2.24 0 l-1.38 -3.66 l-6 0 l-1.38 3.66 l-2.24 0 l2.32 -6.2 l-1.02 -1.08 l1.78 -0.92 l2.42 -6.46 l2.24 0 z M24.692 14.2 l-2.2 -6 l-2.2 6 l4.4 0 z M45.464 12.719999999999999 l-1.22 1.06 l0 6.22 l-2.14 0 l-6.12 -10.86 l0 10.86 l-2.14 0 l0 -6.22 l-1.22 -1.06 l1.22 -1.08 l0 -6.3 l2.26 0 l6 10.56 l0 -10.56 l2.14 0 l0 6.3 z M54.336 12.719999999999999 l-1.22 1.08 l0 6.2 l-2.14 0 l0 -6.2 l-1.22 -1.08 l1.22 -1.06 l0 -6.32 l2.14 0 l0 6.32 z M71.488 12.719999999999999 l-1.22 1.06 l0 6.22 l-2.14 0 l-6.12 -10.86 l0 10.86 l-2.14 0 l0 -6.22 l-1.22 -1.06 l1.22 -1.08 l0 -6.3 l2.26 0 l6 10.56 l0 -10.56 l2.14 0 l0 6.3 z M88.24000000000001 20 l-2.24 0 l-1.38 -3.66 l-6 0 l-1.38 3.66 l-2.24 0 l2.32 -6.2 l-1.02 -1.08 l1.78 -0.92 l2.42 -6.46 l2.24 0 z M83.82000000000001 14.2 l-2.2 -6 l-2.2 6 l4.4 0 z M113.76400000000001 11.04 l-2.38 2.76 l-4.96 0 l0 6.2 l-2.14 0 l0 -6.22 l-1.22 -1.06 l1.22 -1.08 l0 -6.3 l7.1 0 l2.38 2.74 l0 2.96 z M111.62400000000001 10.12 l0 -1.12 l-1.26 -1.52 l-3.94 0 l0 4.16 l3.94 0 z M131.156 12.719999999999999 l-1.22 1.06 l0 3.78 l-2.74 2.44 l-5.2 0 l-2.76 -2.44 l0 -3.78 l-1.22 -1.06 l1.22 -1.08 l0 -3.86 l2.76 -2.44 l5.2 0 l2.74 2.44 l0 3.86 z M127.79600000000002 16.56 l0 -7.76 l-1.52 -1.32 l-3.36 0 l-1.52 1.32 l0 7.76 l1.52 1.3 l3.36 0 z M146.108 11.04 l-2.38 2.76 l-4.96 0 l0 6.2 l-2.14 0 l0 -6.22 l-1.22 -1.06 l1.22 -1.08 l0 -6.3 l7.1 0 l2.38 2.74 l0 2.96 z M143.96800000000002 10.12 l0 -1.12 l-1.26 -1.52 l-3.94 0 l0 4.16 l3.94 0 z M160.74 19.98 l-8.86 0 l0 -6.2 l-1.22 -1.08 l1.22 -1.06 l0 -6.3 l8.86 0 l0 2.14 l-6.72 0 l0 4.16 l5.18 0 l0 2.14 l-5.18 0 l0 4.06 l6.72 0 l0 2.14 z M175.672 17.56 l-2.76 2.44 l-4.98 0 l-2.76 -2.44 l0 -2.66 l2.14 0 l0 1.64 l1.52 1.32 l3.16 0 l1.52 -1.32 l0 -1.64 l-1.52 -1.3 l-3.76 0 l-2.76 -2.46 l0 -3.36 l2.76 -2.44 l4.66 0 l2.76 2.44 l0 2.44 l-2.14 0 l0 -1.52 l-1.42 -1.22 l-3.04 0 l-1.42 1.22 l0 1.52 l1.42 1.24 l3.86 0 l2.76 2.44 l0 3.66 z M191.844 19.98 l-2.46 0 l-4.76 -6.44 l-1.5 1.86 l0 4.58 l-2.14 0 l0 -6.2 l-1.22 -1.08 l1.22 -1.06 l0 -6.3 l2.14 0 l0 7.04 l5.66 -7.04 l2.44 0 l-5.3 6.58 z M208.416 12.719999999999999 l-1.22 1.06 l0 3.78 l-2.74 2.44 l-5.2 0 l-2.76 -2.44 l0 -3.78 l-1.22 -1.06 l1.22 -1.08 l0 -3.86 l2.76 -2.44 l5.2 0 l2.74 2.44 l0 3.86 z M205.05599999999998 16.56 l0 -7.76 l-1.52 -1.32 l-3.36 0 l-1.52 1.32 l0 7.76 l1.52 1.3 l3.36 0 z"></path></g></svg>