<svg width="364.9639791485939" height="36.35625" viewBox="0 0 350 36.6403171989649" xmlns="http://www.w3.org/2000/svg" class="css-1j8o68f"><defs id="SvgjsDefs1414"></defs><g id="SvgjsG1416" featurekey="6sJQsk-0" transform="matrix(1.6807852008012043,0,0,1.6807852008012043,-0.30254104761831485,1.02460997709744)" fill="#a56cc1"><path d="M13.3 5.34 l-5.5 8.26 l0 6.4 l-2.14 0 l0 -6.4 l-5.48 -8.26 l2.44 0 l4.14 6.06 l4.1 -6.06 l2.44 0 z M29.112000000000002 20 l-2.24 0 l-1.38 -3.66 l-6 0 l-1.38 3.66 l-2.24 0 l2.32 -6.2 l-1.02 -1.08 l1.78 -0.92 l2.42 -6.46 l2.24 0 z M24.692 14.2 l-2.2 -6 l-2.2 6 l4.4 0 z M45.464 12.719999999999999 l-1.22 1.06 l0 6.22 l-2.14 0 l-6.12 -10.86 l0 10.86 l-2.14 0 l0 -6.22 l-1.22 -1.06 l1.22 -1.08 l0 -6.3 l2.26 0 l6 10.56 l0 -10.56 l2.14 0 l0 6.3 z M54.336 12.719999999999999 l-1.22 1.08 l0 6.2 l-2.14 0 l0 -6.2 l-1.22 -1.08 l1.22 -1.06 l0 -6.32 l2.14 0 l0 6.32 z M71.488 12.719999999999999 l-1.22 1.06 l0 6.22 l-2.14 0 l-6.12 -10.86 l0 10.86 l-2.14 0 l0 -6.22 l-1.22 -1.06 l1.22 -1.08 l0 -6.3 l2.26 0 l6 10.56 l0 -10.56 l2.14 0 l0 6.3 z M88.24000000000001 20 l-2.24 0 l-1.38 -3.66 l-6 0 l-1.38 3.66 l-2.24 0 l2.32 -6.2 l-1.02 -1.08 l1.78 -0.92 l2.42 -6.46 l2.24 0 z M83.82000000000001 14.2 l-2.2 -6 l-2.2 6 l4.4 0 z M113.76400000000001 11.04 l-2.38 2.76 l-4.96 0 l0 6.2 l-2.14 0 l0 -6.22 l-1.22 -1.06 l1.22 -1.08 l0 -6.3 l7.1 0 l2.38 2.74 l0 2.96 z M111.62400000000001 10.12 l0 -1.12 l-1.26 -1.52 l-3.94 0 l0 4.16 l3.94 0 z M131.156 12.719999999999999 l-1.22 1.06 l0 3.78 l-2.74 2.44 l-5.2 0 l-2.76 -2.44 l0 -3.78 l-1.22 -1.06 l1.22 -1.08 l0 -3.86 l2.76 -2.44 l5.2 0 l2.74 2.44 l0 3.86 z M127.79600000000002 16.56 l0 -7.76 l-1.52 -1.32 l-3.36 0 l-1.52 1.32 l0 7.76 l1.52 1.3 l3.36 0 z M146.108 11.04 l-2.38 2.76 l-4.96 0 l0 6.2 l-2.14 0 l0 -6.22 l-1.22 -1.06 l1.22 -1.08 l0 -6.3 l7.1 0 l2.38 2.74 l0 2.96 z M143.96800000000002 10.12 l0 -1.12 l-1.26 -1.52 l-3.94 0 l0 4.16 l3.94 0 z M160.74 19.98 l-8.86 0 l0 -6.2 l-1.22 -1.08 l1.22 -1.06 l0 -6.3 l8.86 0 l0 2.14 l-6.72 0 l0 4.16 l5.18 0 l0 2.14 l-5.18 0 l0 4.06 l6.72 0 l0 2.14 z M175.672 17.56 l-2.76 2.44 l-4.98 0 l-2.76 -2.44 l0 -2.66 l2.14 0 l0 1.64 l1.52 1.32 l3.16 0 l1.52 -1.32 l0 -1.64 l-1.52 -1.3 l-3.76 0 l-2.76 -2.46 l0 -3.36 l2.76 -2.44 l4.66 0 l2.76 2.44 l0 2.44 l-2.14 0 l0 -1.52 l-1.42 -1.22 l-3.04 0 l-1.42 1.22 l0 1.52 l1.42 1.24 l3.86 0 l2.76 2.44 l0 3.66 z M191.844 19.98 l-2.46 0 l-4.76 -6.44 l-1.5 1.86 l0 4.58 l-2.14 0 l0 -6.2 l-1.22 -1.08 l1.22 -1.06 l0 -6.3 l2.14 0 l0 7.04 l5.66 -7.04 l2.44 0 l-5.3 6.58 z M208.416 12.719999999999999 l-1.22 1.06 l0 3.78 l-2.74 2.44 l-5.2 0 l-2.76 -2.44 l0 -3.78 l-1.22 -1.06 l1.22 -1.08 l0 -3.86 l2.76 -2.44 l5.2 0 l2.74 2.44 l0 3.86 z M205.05599999999998 16.56 l0 -7.76 l-1.52 -1.32 l-3.36 0 l-1.52 1.32 l0 7.76 l1.52 1.3 l3.36 0 z"></path></g></svg>
